PathFileType	4	(X/Y/Z)	C:\Users\Graham\Documents\MATLAB\MOtoNMS_v2_2\MyData\ElaboratedData\S1\17-05-18\staticElaborations\Static1\Static1\\Static1.trc
DataRate	CameraRate	NumFrames	NumMarkers	Units	OrigDataRate	DataStartFrame
100	100	4	38	mm	100	2
Frame#	Time	V_Sacral			R_ASIS			L_ASIS			R_Knee_Lat			R_Knee_Med			R_Thigh_Upper			R_Thigh_Front			R_Thigh_Rear			L_Knee_Lat			L_Knee_Med			L_Thigh_Upper			L_Thigh_Front			L_Thigh_Rear			R_Ankle_Lat			R_Ankle_Med			R_Shank_Upper			R_Shank_Front			R_Shank_Rear			L_Ankle_Lat			L_Ankle_Med			L_Shank_Upper			L_Shank_Front			L_Shank_Rear			R_Heel			R_MTP1			R_MTP5			L_Heel			L_MTP1			L_MTP5			Clavicle			R_Acromium			L_Acromium			LAJC			RAJC			LHJC			RHJC			LKJC			RKJC		
		X1	Y1	Z1	X2	Y2	Z2	X3	Y3	Z3	X4	Y4	Z4	X5	Y5	Z5	X6	Y6	Z6	X7	Y7	Z7	X8	Y8	Z8	X9	Y9	Z9	X10	Y10	Z10	X11	Y11	Z11	X12	Y12	Z12	X13	Y13	Z13	X14	Y14	Z14	X15	Y15	Z15	X16	Y16	Z16	X17	Y17	Z17	X18	Y18	Z18	X19	Y19	Z19	X20	Y20	Z20	X21	Y21	Z21	X22	Y22	Z22	X23	Y23	Z23	X24	Y24	Z24	X25	Y25	Z25	X26	Y26	Z26	X27	Y27	Z27	X28	Y28	Z28	X29	Y29	Z29	X30	Y30	Z30	X31	Y31	Z31	X32	Y32	Z32	X33	Y33	Z33	X34	Y34	Z34	X35	Y35	Z35	X36	Y36	Z36	X37	Y37	Z37	X38	Y38	Z38	

205	2.040000	-44.834526	1071.405174	5.279213	155.894971	1026.209040	128.087637	154.435008	1034.685623	-104.390133	16.269796	533.397204	173.767524	41.224211	522.545267	65.641944	147.795905	867.278512	170.104882	158.589058	743.933206	136.071275	105.497525	743.382158	195.807467	20.364188	537.521448	-163.891318	28.221156	520.985190	-56.243138	156.344939	862.342381	-145.144000	158.999823	744.509004	-95.587729	120.596674	742.673591	-171.888335	11.813709	111.627469	183.697179	20.749505	107.601939	99.376998	67.563315	329.669249	164.510039	45.087283	217.160314	108.786076	33.917082	213.591528	190.044621	6.040428	99.836708	-175.016117	25.288770	104.842006	-86.505271	59.903002	332.435910	-149.747675	41.357483	214.505148	-105.287014	28.143454	217.162135	-183.661461	-56.125327	53.665408	127.665521	174.687282	62.762372	115.650980	161.890871	57.050397	191.786231	-62.459356	56.891592	-125.389525	174.505801	58.954652	-112.322010	151.684570	51.714616	-197.133903	151.426179	1461.638082	11.911377	109.257753	1499.408299	203.206808	94.724272	1506.965972	-189.702339	15.664599	102.339357	-130.760694	16.281607	109.614704	141.537089	80.809185	966.218560	-74.153875	81.864386	960.092035	93.871470	24.292672	529.253319	-110.067228	28.747003	527.971235	119.704734	
206	2.050000	-44.817582	1071.403627	5.262627	155.878964	1026.206009	128.129679	154.478832	1034.680228	-104.360222	16.264178	533.397247	173.755121	41.227464	522.545901	65.647482	147.782577	867.278707	170.139087	158.589513	743.936401	136.102949	105.472173	743.375038	195.824202	20.401033	537.521479	-163.889944	28.236339	520.987205	-56.238051	156.401924	862.339275	-145.106254	159.045445	744.504780	-95.549675	120.661962	742.668782	-171.857858	11.814173	111.626791	183.695580	20.749925	107.601942	99.374610	67.555758	329.668933	164.515297	45.093391	217.164992	108.788403	33.907170	213.590623	190.047273	6.039993	99.838707	-175.017474	25.288742	104.842766	-86.505334	59.922614	332.432807	-149.741220	41.363944	214.503604	-105.282430	28.158186	217.161245	-183.660913	-56.125724	53.664233	127.664718	174.688261	62.762249	115.651500	161.891960	57.050668	191.787088	-62.459271	56.892264	-125.389869	174.507634	58.952366	-112.322337	151.684608	51.713817	-197.133544	151.434019	1461.619593	11.980058	109.179345	1499.359931	203.275014	94.804944	1506.978313	-189.657940	15.664367	102.340737	-130.761404	16.282049	109.614366	141.535095	80.843740	966.211053	-74.140210	81.855693	960.086264	93.893171	24.318686	529.254342	-110.063997	28.745821	527.971574	119.701301	
207	2.060000	-44.804150	1071.402988	5.246283	155.856922	1026.202724	128.171589	154.518978	1034.673925	-104.330464	16.256118	533.397515	173.743333	41.228504	522.547587	65.653638	147.765687	867.279850	170.173950	158.587888	743.940533	136.135807	105.443209	743.368327	195.841795	20.436081	537.521541	-163.888493	28.249541	520.989276	-56.233136	156.456580	862.335365	-145.067789	159.088885	744.500136	-95.510988	120.724828	742.663015	-171.826060	11.815059	111.625864	183.694183	20.750292	107.602651	99.371851	67.547121	329.668820	164.520725	45.098289	217.169942	108.790631	33.896979	213.589818	190.050704	6.039557	99.840554	-175.018839	25.288599	104.843554	-86.505212	59.941457	332.430346	-149.734894	41.368628	214.502593	-105.278170	28.172765	217.161019	-183.659988	-56.126344	53.663404	127.664350	174.689302	62.761910	115.652340	161.893252	57.050578	191.788161	-62.459054	56.892858	-125.390138	174.509998	58.949853	-112.322872	151.685168	51.712639	-197.133047	151.456202	1461.597427	12.038736	109.125030	1499.313413	203.335227	94.894114	1506.985275	-189.620646	15.664078	102.342054	-130.762025	16.282675	109.614257	141.533017	80.873954	966.203331	-74.127230	81.840957	960.080750	93.914203	24.342811	529.255409	-110.060814	28.742311	527.972551	119.698486	
208	2.070000	-44.793894	1071.403410	5.229904	155.829396	1026.199279	128.212907	154.555732	1034.666806	-104.300950	16.245446	533.398389	173.733303	41.227189	522.550068	65.660370	147.745229	867.282104	170.209453	158.583228	743.945467	136.170056	105.410254	743.362513	195.860991	20.468593	537.521709	-163.886686	28.260893	520.991224	-56.228293	156.507955	862.330603	-145.029127	159.128655	744.494996	-95.472268	120.783478	742.656455	-171.793665	11.816181	111.624830	183.692941	20.750605	107.603983	99.368969	67.537738	329.669073	164.526359	45.101415	217.174525	108.792622	33.886587	213.589209	190.054675	6.039262	99.842115	-175.020001	25.288439	104.844291	-86.504894	59.959156	332.428603	-149.728647	41.371835	214.502260	-105.274169	28.186808	217.161472	-183.658573	-56.127135	53.662950	127.664442	174.690359	62.761343	115.653404	161.894733	57.050005	191.789473	-62.458668	56.893315	-125.390252	174.512864	58.947135	-112.323597	151.686301	51.711052	-197.132476	151.492602	1461.571981	12.086547	109.097160	1499.270916	203.385606	94.991117	1506.987747	-189.590922	15.663851	102.343203	-130.762447	16.283393	109.614406	141.530955	80.900138	966.195612	-74.115000	81.820678	960.075713	93.934255	24.364743	529.256467	-110.057489	28.736317	527.974229	119.696836	
